{"extensionsUsed" : ["KHR_materials_specular", "KHR_materials_ior"], "accessors" : [{"bufferView" : 0, "byteOffset" : 0, "componentType" : 5123, "count" : 12600, "type" : "SCALAR", "max" : [10191], "min" : [0]}, {"bufferView" : 1, "byteOffset" : 0, "componentType" : 5126, "count" : 10192, "type" : "VEC3", "max" : [0.05920000001788139, 0.062199998646974564, 0.12087199836969376], "min" : [-0.047200001776218414, -0.044199999421834946, -0.26147499680519104], "name" : "POSITION"}, {"bufferView" : 1, "byteOffset" : 12, "componentType" : 5126, "count" : 10192, "type" : "VEC3", "max" : [1.0000044107437134, 1.0000044107437134, 1.0000044107437134], "min" : [-1.0000044107437134, -1.0000044107437134, -1.0000044107437134], "name" : "NORMAL"}, {"bufferView" : 1, "byteOffset" : 24, "componentType" : 5126, "count" : 10192, "type" : "VEC2", "max" : [1, 0.9428570866584778], "min" : [0, 0.028571009635925293], "name" : "TEXCOORD_0"}, {"bufferView" : 0, "byteOffset" : 25200, "componentType" : 5123, "count" : 6300, "type" : "SCALAR", "max" : [5287], "min" : [0]}, {"bufferView" : 2, "byteOffset" : 0, "componentType" : 5126, "count" : 5288, "type" : "VEC3", "max" : [0.032746098935604095, 0.03482940047979355, -0.25050100684165955], "min" : [-0.020396100357174873, -0.01824060082435608, -0.26168298721313477], "name" : "POSITION"}, {"bufferView" : 2, "byteOffset" : 12, "componentType" : 5126, "count" : 5288, "type" : "VEC3", "max" : [0.9983033537864685, 0.9983018636703491, 1.0000044107437134], "min" : [-0.9983046650886536, -0.9983029365539551, -1.0000044107437134], "name" : "NORMAL"}, {"bufferView" : 2, "byteOffset" : 24, "componentType" : 5126, "count" : 5288, "type" : "VEC2", "max" : [1, 1], "min" : [-1, 0], "name" : "TEXCOORD_0"}, {"bufferView" : 0, "byteOffset" : 37800, "componentType" : 5123, "count" : 630, "type" : "SCALAR", "max" : [524], "min" : [0]}, {"bufferView" : 3, "byteOffset" : 0, "componentType" : 5126, "count" : 525, "type" : "VEC3", "max" : [0.05921399965882301, 0.062213998287916183, 0.08992499858140945], "min" : [-0.04587940126657486, -0.044213999062776566, -0.09399999678134918], "name" : "POSITION"}, {"bufferView" : 3, "byteOffset" : 12, "componentType" : 5126, "count" : 525, "type" : "VEC3", "max" : [1.0000044107437134, 1.0000044107437134, 5.3654373914469033E-05], "min" : [-0.9438860416412354, -1.0000044107437134, -5.367720950744115E-05], "name" : "NORMAL"}, {"bufferView" : 3, "byteOffset" : 24, "componentType" : 5126, "count" : 525, "type" : "VEC2", "max" : [0.9038730263710022, 0.8523290157318115], "min" : [0.09614499658346176, 0.2572519779205322], "name" : "TEXCOORD_0"}, {"bufferView" : 0, "byteOffset" : 39060, "componentType" : 5123, "count" : 11580, "type" : "SCALAR", "max" : [9445], "min" : [0]}, {"bufferView" : 4, "byteOffset" : 0, "componentType" : 5126, "count" : 9446, "type" : "VEC3", "max" : [0.0545618012547493, 0.05756179988384247, 0.1159290000796318], "min" : [-0.04256179928779602, -0.03956180065870285, -0.2443220019340515], "name" : "POSITION"}, {"bufferView" : 4, "byteOffset" : 12, "componentType" : 5126, "count" : 9446, "type" : "VEC3", "max" : [1.0000044107437134, 1.0000044107437134, 1.0000044107437134], "min" : [-1.0000044107437134, -1.0000044107437134, -1.0000044107437134], "name" : "NORMAL"}, {"bufferView" : 4, "byteOffset" : 24, "componentType" : 5126, "count" : 9446, "type" : "VEC2", "max" : [1, 1], "min" : [-1, 0], "name" : "TEXCOORD_0"}], "asset" : {"generator" : "Aspose.3D 22.7", "version" : "2.0"}, "buffers" : [{"uri" : "data:application/octet-stream;base64,", "byteLength" : 1057760}], "bufferViews" : [{"buffer" : 0, "byteOffset" : 0, "byteLength" : 62220, "target" : 34963}, {"buffer" : 0, "byteOffset" : 62224, "byteLength" : 403200, "byteStride" : 32, "target" : 34962}, {"buffer" : 0, "byteOffset" : 465428, "byteLength" : 201600, "byteStride" : 32, "target" : 34962}, {"buffer" : 0, "byteOffset" : 667032, "byteLength" : 20160, "byteStride" : 32, "target" : 34962}, {"buffer" : 0, "byteOffset" : 687196, "byteLength" : 370560, "byteStride" : 32, "target" : 34962}], "images" : [{"uri" : "data:image/png;base64,"}], "materials" : [{"name" : "liquido", "extensions" : {"KHR_materials_specular" : {"specularColorFactor" : [0.5109197843823265, 0.5109197843823265, 0.5109197843823265]}, "KHR_materials_ior" : {"ior" : 1.4500000476837158}}, "pbrMetallicRoughness" : {"baseColorFactor" : [0.022364797070622444, 0.03820116072893143, 0.012565109878778458, 0.7772727012634277], "metallicFactor" : 0, "roughnessFactor" : 0}, "emissiveFactor" : [0, 0, 0], "alphaMode" : "BLEND", "doubleSided" : true}, {"name" : "Material.001", "extensions" : {"KHR_materials_specular" : {"specularColorFactor" : [0.4742714946194939, 0.4742714946194939, 0.4742714946194939]}, "KHR_materials_ior" : {"ior" : 1.4500000476837158}}, "pbrMetallicRoughness" : {"baseColorFactor" : [0.026683786883950233, 0.051614630967378616, 0.026097944006323814, 1], "metallicFactor" : 0.3181818127632141, "roughnessFactor" : 0.2590909004211426}, "emissiveFactor" : [0, 0, 0], "alphaMode" : "OPAQUE", "doubleSided" : true}, {"name" : "Material.002", "pbrMetallicRoughness" : {"baseColorFactor" : [1, 1, 1, 1], "baseColorTexture" : {"index" : 0, "texCoord" : 0}, "metallicFactor" : 0, "roughnessFactor" : 0.5}, "emissiveFactor" : [0, 0, 0], "alphaMode" : "OPAQUE", "doubleSided" : true}, {"name" : "Material.003", "extensions" : {"KHR_materials_specular" : {"specularColorFactor" : [0.6359549554819595, 0.6359549554819595, 0.6359549554819595]}, "KHR_materials_ior" : {"ior" : 1.4500000476837158}}, "pbrMetallicRoughness" : {"baseColorFactor" : [0.02247774973511696, 0.03379127010703087, 0.0182208139449358, 1], "metallicFactor" : 0, "roughnessFactor" : 0}, "emissiveFactor" : [0, 0, 0], "alphaMode" : "OPAQUE", "doubleSided" : true}], "meshes" : [{"primitives" : [{"attributes" : {"POSITION" : 1, "NORMAL" : 2, "TEXCOORD_0" : 3}, "indices" : 0, "material" : 0, "mode" : 4}]}, {"primitives" : [{"attributes" : {"POSITION" : 5, "NORMAL" : 6, "TEXCOORD_0" : 7}, "indices" : 4, "material" : 1, "mode" : 4}]}, {"primitives" : [{"attributes" : {"POSITION" : 9, "NORMAL" : 10, "TEXCOORD_0" : 11}, "indices" : 8, "material" : 2, "mode" : 4}]}, {"primitives" : [{"attributes" : {"POSITION" : 13, "NORMAL" : 14, "TEXCOORD_0" : 15}, "indices" : 12, "material" : 3, "mode" : 4}]}], "nodes" : [{"matrix" : [0.3591257354169599, 6.948802422357403E-08, 0.9332892756012967, 0, -0.9332892756012967, -1.7706393151684097E-07, 0.3591258647646214, 0, 6.948802422357403E-08, -1.0000001293476544, -8.163138431882544E-08, 0, -0.018575839698314667, 0.0009362732525914907, 0.002567283809185028, 1], "mesh" : 0, "name" : "Bottle.001"}, {"matrix" : [0.3591257354169599, 6.948802422357403E-08, 0.9332892756012967, 0, -0.9332892756012967, -1.7706393151684097E-07, 0.3591258647646214, 0, 6.948802422357403E-08, -1.0000001293476544, -8.163138431882544E-08, 0, -0.018575839698314667, 0.0009362732525914907, 0.002567283809185028, 1], "mesh" : 1, "name" : "cap.001"}, {"matrix" : [0.3591257354169599, 6.948802422357403E-08, 0.9332892756012967, 0, -0.9332892756012967, -1.7706393151684097E-07, 0.3591258647646214, 0, 6.948802422357403E-08, -1.0000001293476544, -8.163138431882544E-08, 0, -0.018575839698314667, 0.0009362732525914907, 0.002567283809185028, 1], "mesh" : 2, "name" : "label (2)"}, {"matrix" : [0.3591257354169599, 6.948802422357403E-08, 0.9332892756012967, 0, -0.9332892756012967, -1.7706393151684097E-07, 0.3591258647646214, 0, 6.948802422357403E-08, -1.0000001293476544, -8.163138431882544E-08, 0, -0.018575839698314667, 0.0009362732525914907, 0.002567283809185028, 1], "mesh" : 3, "name" : "liquido.001"}], "samplers" : [{"magFilter" : 9729, "minFilter" : 9987, "wrapS" : 10497, "wrapT" : 10497}], "scene" : 0, "scenes" : [{"nodes" : [0, 1, 2, 3]}], "textures" : [{"sampler" : 0, "source" : 0, "name" : ""}]}