{
    "asset" : {
        "generator" : "Khronos glTF Blender I/O v3.3.27",
        "version" : "2.0"
    },
    "extensionsUsed" : [
        "KHR_materials_specular",
        "KHR_materials_ior"
    ],
    "scene" : 0,
    "scenes" : [
        {
            "name" : "Scene",
            "nodes" : [
                1,
                2,
                3,
                4,
                5
            ]
        }
    ],
    "nodes" : [
        {
            "name" : "Camera.001",
            "rotation" : [
                0.5167515873908997,
                -0.18788368999958038,
                0.11740309745073318,
                0.8269727826118469
            ],
            "translation" : [
                -0.023583294823765755,
                0.038845647126436234,
                -0.12230703234672546
            ]
        },
        {
            "children" : [
                0
            ],
            "name" : "Empty.001"
        },
        {
            "mesh" : 0,
            "name" : "Bottle.001",
            "rotation" : [
                0.5829078555107117,
                -0.4002731442451477,
                0.4002732038497925,
                0.5829076766967773
            ],
            "scale" : [
                5.776940822601318,
                5.776941776275635,
                5.776941299438477
            ],
            "translation" : [
                0.07066072523593903,
                0.6803696155548096,
                -0.048370324075222015
            ]
        },
        {
            "mesh" : 1,
            "name" : "cap.001",
            "rotation" : [
                0.5829078555107117,
                -0.4002731442451477,
                0.4002732038497925,
                0.5829076766967773
            ],
            "scale" : [
                5.776940822601318,
                5.776941776275635,
                5.776941299438477
            ],
            "translation" : [
                0.07066072523593903,
                0.6803696155548096,
                -0.048370324075222015
            ]
        },
        {
            "mesh" : 2,
            "name" : "label (2)",
            "rotation" : [
                0.5829078555107117,
                -0.4002731442451477,
                0.4002732038497925,
                0.5829076766967773
            ],
            "scale" : [
                5.776940822601318,
                5.776941776275635,
                5.776941299438477
            ],
            "translation" : [
                0.07066072523593903,
                0.6803696155548096,
                -0.048370324075222015
            ]
        },
        {
            "mesh" : 3,
            "name" : "liquido.001",
            "rotation" : [
                0.5829078555107117,
                -0.4002731442451477,
                0.4002732038497925,
                0.5829076766967773
            ],
            "scale" : [
                5.776940822601318,
                5.776941776275635,
                5.776941299438477
            ],
            "translation" : [
                0.07066072523593903,
                0.6803696155548096,
                -0.048370324075222015
            ]
        }
    ],
    "animations" : [
        {
            "channels" : [
                {
                    "sampler" : 0,
                    "target" : {
                        "node" : 1,
                        "path" : "translation"
                    }
                },
                {
                    "sampler" : 1,
                    "target" : {
                        "node" : 1,
                        "path" : "rotation"
                    }
                },
                {
                    "sampler" : 2,
                    "target" : {
                        "node" : 1,
                        "path" : "scale"
                    }
                }
            ],
            "name" : "Empty.001Action",
            "samplers" : [
                {
                    "input" : 16,
                    "interpolation" : "STEP",
                    "output" : 17
                },
                {
                    "input" : 18,
                    "interpolation" : "LINEAR",
                    "output" : 19
                },
                {
                    "input" : 16,
                    "interpolation" : "STEP",
                    "output" : 20
                }
            ]
        }
    ],
    "materials" : [
        {
            "alphaMode" : "BLEND",
            "doubleSided" : true,
            "extensions" : {
                "KHR_materials_specular" : {
                    "specularColorFactor" : [
                        0.5109197843823265,
                        0.5109197843823265,
                        0.5109197843823265
                    ]
                },
                "KHR_materials_ior" : {
                    "ior" : 1.4500000476837158
                }
            },
            "name" : "liquido",
            "pbrMetallicRoughness" : {
                "baseColorFactor" : [
                    0.022364797070622444,
                    0.03820116072893143,
                    0.012565109878778458,
                    0.7772727012634277
                ],
                "metallicFactor" : 0,
                "roughnessFactor" : 0
            }
        },
        {
            "doubleSided" : true,
            "extensions" : {
                "KHR_materials_specular" : {
                    "specularColorFactor" : [
                        0.4742714946194939,
                        0.4742714946194939,
                        0.4742714946194939
                    ]
                },
                "KHR_materials_ior" : {
                    "ior" : 1.4500000476837158
                }
            },
            "name" : "Material.001",
            "pbrMetallicRoughness" : {
                "baseColorFactor" : [
                    0.026683786883950233,
                    0.051614630967378616,
                    0.026097944006323814,
                    1
                ],
                "metallicFactor" : 0.3181818127632141,
                "roughnessFactor" : 0.2590909004211426
            }
        },
        {
            "alphaMode" : "BLEND",
            "doubleSided" : true,
            "name" : "Material.002",
            "pbrMetallicRoughness" : {
                "baseColorTexture" : {
                    "index" : 0
                },
                "metallicFactor" : 0,
                "roughnessFactor" : 0.5
            }
        },
        {
            "doubleSided" : true,
            "extensions" : {
                "KHR_materials_specular" : {
                    "specularColorFactor" : [
                        0.6359549554819595,
                        0.6359549554819595,
                        0.6359549554819595
                    ]
                },
                "KHR_materials_ior" : {
                    "ior" : 1.4500000476837158
                }
            },
            "name" : "Material.003",
            "pbrMetallicRoughness" : {
                "baseColorFactor" : [
                    0.02247774973511696,
                    0.03379127010703087,
                    0.0182208139449358,
                    1
                ],
                "metallicFactor" : 0,
                "roughnessFactor" : 0
            }
        }
    ],
    "meshes" : [
        {
            "name" : "Bottle.001",
            "primitives" : [
                {
                    "attributes" : {
                        "POSITION" : 0,
                        "NORMAL" : 1,
                        "TEXCOORD_0" : 2
                    },
                    "indices" : 3,
                    "material" : 0
                }
            ]
        },
        {
            "name" : "cap.001",
            "primitives" : [
                {
                    "attributes" : {
                        "POSITION" : 4,
                        "NORMAL" : 5,
                        "TEXCOORD_0" : 6
                    },
                    "indices" : 7,
                    "material" : 1
                }
            ]
        },
        {
            "name" : "label (2)",
            "primitives" : [
                {
                    "attributes" : {
                        "POSITION" : 8,
                        "NORMAL" : 9,
                        "TEXCOORD_0" : 10
                    },
                    "indices" : 11,
                    "material" : 2
                }
            ]
        },
        {
            "name" : "liquido.001",
            "primitives" : [
                {
                    "attributes" : {
                        "POSITION" : 12,
                        "NORMAL" : 13,
                        "TEXCOORD_0" : 14
                    },
                    "indices" : 15,
                    "material" : 3
                }
            ]
        }
    ],
    "textures" : [
        {
            "sampler" : 0,
            "source" : 0
        }
    ],
    "images" : [
        {
            "bufferView" : 12,
            "mimeType" : "image/png",
            "name" : "bierlogo-bierlogoAlp[ha"
        }
    ],
    "accessors" : [
        {
            "bufferView" : 0,
            "componentType" : 5126,
            "count" : 2180,
            "max" : [
                0.05920000001788139,
                0.062199998646974564,
                0.12087199836969376
            ],
            "min" : [
                -0.047200001776218414,
                -0.044199999421834946,
                -0.26147499680519104
            ],
            "type" : "VEC3"
        },
        {
            "bufferView" : 1,
            "componentType" : 5126,
            "count" : 2180,
            "type" : "VEC3"
        },
        {
            "bufferView" : 2,
            "componentType" : 5126,
            "count" : 2180,
            "type" : "VEC2"
        },
        {
            "bufferView" : 3,
            "componentType" : 5123,
            "count" : 12600,
            "type" : "SCALAR"
        },
        {
            "bufferView" : 4,
            "componentType" : 5126,
            "count" : 4515,
            "max" : [
                0.032746098935604095,
                0.03482940047979355,
                -0.25050100684165955
            ],
            "min" : [
                -0.020396100357174873,
                -0.01824060082435608,
                -0.26168298721313477
            ],
            "type" : "VEC3"
        },
        {
            "bufferView" : 5,
            "componentType" : 5126,
            "count" : 4515,
            "type" : "VEC3"
        },
        {
            "bufferView" : 6,
            "componentType" : 5126,
            "count" : 4515,
            "type" : "VEC2"
        },
        {
            "bufferView" : 7,
            "componentType" : 5123,
            "count" : 6300,
            "type" : "SCALAR"
        },
        {
            "bufferView" : 8,
            "componentType" : 5126,
            "count" : 420,
            "max" : [
                0.05921399965882301,
                0.062213998287916183,
                0.08992499858140945
            ],
            "min" : [
                -0.04587940126657486,
                -0.044213999062776566,
                -0.09399999678134918
            ],
            "type" : "VEC3"
        },
        {
            "bufferView" : 9,
            "componentType" : 5126,
            "count" : 420,
            "type" : "VEC3"
        },
        {
            "bufferView" : 10,
            "componentType" : 5126,
            "count" : 420,
            "type" : "VEC2"
        },
        {
            "bufferView" : 11,
            "componentType" : 5123,
            "count" : 630,
            "type" : "SCALAR"
        },
        {
            "bufferView" : 13,
            "componentType" : 5126,
            "count" : 2294,
            "max" : [
                0.0545618012547493,
                0.05756179988384247,
                0.1159290000796318
            ],
            "min" : [
                -0.04256179928779602,
                -0.03956180065870285,
                -0.2443220019340515
            ],
            "type" : "VEC3"
        },
        {
            "bufferView" : 14,
            "componentType" : 5126,
            "count" : 2294,
            "type" : "VEC3"
        },
        {
            "bufferView" : 15,
            "componentType" : 5126,
            "count" : 2294,
            "type" : "VEC2"
        },
        {
            "bufferView" : 16,
            "componentType" : 5123,
            "count" : 11580,
            "type" : "SCALAR"
        },
        {
            "bufferView" : 17,
            "componentType" : 5126,
            "count" : 1,
            "max" : [
                0.041666666666666664
            ],
            "min" : [
                0.041666666666666664
            ],
            "type" : "SCALAR"
        },
        {
            "bufferView" : 18,
            "componentType" : 5126,
            "count" : 1,
            "type" : "VEC3"
        },
        {
            "bufferView" : 19,
            "componentType" : 5126,
            "count" : 216,
            "max" : [
                9
            ],
            "min" : [
                0.041666666666666664
            ],
            "type" : "SCALAR"
        },
        {
            "bufferView" : 20,
            "componentType" : 5126,
            "count" : 216,
            "type" : "VEC4"
        },
        {
            "bufferView" : 21,
            "componentType" : 5126,
            "count" : 1,
            "type" : "VEC3"
        }
    ],
    "bufferViews" : [
        {
            "buffer" : 0,
            "byteLength" : 26160,
            "byteOffset" : 0,
            "target" : 34962
        },
        {
            "buffer" : 0,
            "byteLength" : 26160,
            "byteOffset" : 26160,
            "target" : 34962
        },
        {
            "buffer" : 0,
            "byteLength" : 17440,
            "byteOffset" : 52320,
            "target" : 34962
        },
        {
            "buffer" : 0,
            "byteLength" : 25200,
            "byteOffset" : 69760,
            "target" : 34963
        },
        {
            "buffer" : 0,
            "byteLength" : 54180,
            "byteOffset" : 94960,
            "target" : 34962
        },
        {
            "buffer" : 0,
            "byteLength" : 54180,
            "byteOffset" : 149140,
            "target" : 34962
        },
        {
            "buffer" : 0,
            "byteLength" : 36120,
            "byteOffset" : 203320,
            "target" : 34962
        },
        {
            "buffer" : 0,
            "byteLength" : 12600,
            "byteOffset" : 239440,
            "target" : 34963
        },
        {
            "buffer" : 0,
            "byteLength" : 5040,
            "byteOffset" : 252040,
            "target" : 34962
        },
        {
            "buffer" : 0,
            "byteLength" : 5040,
            "byteOffset" : 257080,
            "target" : 34962
        },
        {
            "buffer" : 0,
            "byteLength" : 3360,
            "byteOffset" : 262120,
            "target" : 34962
        },
        {
            "buffer" : 0,
            "byteLength" : 1260,
            "byteOffset" : 265480,
            "target" : 34963
        },
        {
            "buffer" : 0,
            "byteLength" : 991018,
            "byteOffset" : 266740
        },
        {
            "buffer" : 0,
            "byteLength" : 27528,
            "byteOffset" : 1257760,
            "target" : 34962
        },
        {
            "buffer" : 0,
            "byteLength" : 27528,
            "byteOffset" : 1285288,
            "target" : 34962
        },
        {
            "buffer" : 0,
            "byteLength" : 18352,
            "byteOffset" : 1312816,
            "target" : 34962
        },
        {
            "buffer" : 0,
            "byteLength" : 23160,
            "byteOffset" : 1331168,
            "target" : 34963
        },
        {
            "buffer" : 0,
            "byteLength" : 4,
            "byteOffset" : 1354328
        },
        {
            "buffer" : 0,
            "byteLength" : 12,
            "byteOffset" : 1354332
        },
        {
            "buffer" : 0,
            "byteLength" : 864,
            "byteOffset" : 1354344
        },
        {
            "buffer" : 0,
            "byteLength" : 3456,
            "byteOffset" : 1355208
        },
        {
            "buffer" : 0,
            "byteLength" : 12,
            "byteOffset" : 1358664
        }
    ],
    "samplers" : [
        {
            "magFilter" : 9729,
            "minFilter" : 9987
        }
    ],
    "buffers" : [
        {
            "byteLength" : 1358676,
            "uri" : "data:application/octet-stream;base64,"
        }
    ]
}
